<svg xmlns="http://www.w3.org/2000/svg" viewBox="0 0 900 460" width="900" height="460" font-family="-apple-system,BlinkMacSystemFont,Segoe UI,Roboto,sans-serif"><rect width="900" height="460" fill="#ffffff"/><line x1="72" y1="30" x2="72" y2="406" stroke="#eceff3"/><text x="72" y="424" fill="#6b7688" font-size="12" text-anchor="middle">1B</text><line x1="391.20000000000005" y1="30" x2="391.20000000000005" y2="406" stroke="#eceff3"/><text x="391.20000000000005" y="424" fill="#6b7688" font-size="12" text-anchor="middle">10B</text><line x1="710.4000000000001" y1="30" x2="710.4000000000001" y2="406" stroke="#eceff3"/><text x="710.4000000000001" y="424" fill="#6b7688" font-size="12" text-anchor="middle">100B</text><line x1="72" y1="406" x2="870" y2="406" stroke="#eceff3"/><text x="63" y="410" fill="#6b7688" font-size="12" text-anchor="end">1B</text><line x1="72" y1="304.37837837837833" x2="870" y2="304.37837837837833" stroke="#eceff3"/><text x="63" y="308.37837837837833" fill="#6b7688" font-size="12" text-anchor="end">10B</text><line x1="72" y1="202.75675675675672" x2="870" y2="202.75675675675672" stroke="#eceff3"/><text x="63" y="206.75675675675672" fill="#6b7688" font-size="12" text-anchor="end">100B</text><line x1="72" y1="101.1351351351351" x2="870" y2="101.1351351351351" stroke="#eceff3"/><text x="63" y="105.1351351351351" fill="#6b7688" font-size="12" text-anchor="end">1T</text><text x="471" y="452" fill="#2f3946" font-size="13" text-anchor="middle" font-weight="600">Model size (parameters) →</text><text x="18" y="218" fill="#2f3946" font-size="13" text-anchor="middle" font-weight="600" transform="rotate(-90 18 218)">Training tokens →</text><line x1="72" y1="273.78722206225484" x2="805.7939019899783" y2="40.174044567646774" stroke="#c9a15a" stroke-width="1.5" stroke-dasharray="6,5"/><line x1="72" y1="16" x2="96" y2="16" stroke="#c9a15a" stroke-width="1.5" stroke-dasharray="6,5"/><a href="https://arxiv.org/abs/2203.15556" target="_blank" rel="noopener"><text x="102" y="20" fill="#b07d1e" font-size="12" text-anchor="start" style="cursor:pointer">Chinchilla-optimal (20 tokens/param)</text></a><circle cx="128.20832989057348" cy="304.37837837837833" r="5" fill="#9aa4b2" stroke="#fff" stroke-width="2"/><text x="128.20832989057348" y="292.37837837837833" fill="#9aa4b2" font-size="12" font-weight="600" text-anchor="middle">GPT-2</text><circle cx="787.9777451406652" cy="154.2709211420018" r="6" fill="#d97706" stroke="#fff" stroke-width="2"/><text x="787.9777451406652" y="142.2709211420018" fill="#d97706" font-size="12" font-weight="600" text-anchor="middle">GPT-3</text><circle cx="660.9552943725508" cy="86.28536718513033" r="5" fill="#9aa4b2" stroke="#fff" stroke-width="2"/><text x="660.9552943725508" y="106.28536718513033" fill="#9aa4b2" font-size="12" font-weight="600" text-anchor="middle">Chinchilla</text><circle cx="660.9552943725508" cy="70.54397881901156" r="5" fill="#9aa4b2" stroke="#fff" stroke-width="2"/><text x="660.9552943725508" y="58.543978819011556" fill="#9aa4b2" font-size="12" font-weight="600" text-anchor="middle">Llama 2</text><circle cx="341.7552943725508" cy="342.15234062056356" r="7" fill="#0d9488" stroke="#fff" stroke-width="2"/><text x="341.7552943725508" y="329.15234062056356" fill="#0d9488" font-size="12" font-weight="600" text-anchor="middle">MolmoAct2</text><rect x="72" y="30" width="798" height="376" fill="none" stroke="#dbe0e8"/></svg>